<?xml version="1.0" standalone="no"?>
<!DOCTYPE svg PUBLIC "-//W3C//DTD SVG 20010904//EN"
 "http://www.w3.org/TR/2001/REC-SVG-20010904/DTD/svg10.dtd">
<svg version="1.0" xmlns="http://www.w3.org/2000/svg"
 width="1054.000000pt" height="1054.000000pt" viewBox="0 0 1054.000000 1054.000000"
 preserveAspectRatio="xMidYMid meet">
<metadata>
Created by potrace 1.14, written by Peter Selinger 2001-2017
</metadata>
<g transform="translate(0.000000,1054.000000) scale(0.100000,-0.100000)"
fill="#000000" stroke="none">
<path d="M5039 10536 c-2 -2 -53 -6 -114 -10 -555 -33 -1169 -180 -1700 -406
-242 -103 -555 -265 -555 -287 0 -7 -15 -20 -32 -29 -51 -27 -243 -148 -246
-156 -2 -5 -8 -8 -12 -8 -13 0 -312 -212 -340 -240 -3 -3 -27 -23 -55 -44 -27
-22 -57 -46 -65 -53 -8 -8 -26 -23 -40 -34 -51 -42 -156 -136 -206 -184 -83
-80 -108 -101 -100 -85 13 26 -185 -180 -290 -303 -579 -672 -987 -1511 -1163
-2392 -31 -155 -55 -305 -66 -410 -3 -33 -8 -69 -10 -80 -19 -100 -28 -724
-12 -930 22 -293 70 -598 138 -870 33 -133 95 -349 109 -380 5 -11 19 -51 31
-90 97 -309 353 -829 567 -1155 42 -63 171 -247 189 -270 7 -8 53 -67 103
-130 105 -131 182 -220 295 -338 122 -129 272 -272 284 -272 4 0 25 -16 47
-35 115 -103 190 -164 308 -252 61 -45 116 -87 122 -92 45 -37 396 -261 410
-261 4 0 15 -6 23 -14 14 -11 110 -65 215 -120 15 -7 27 -17 26 -21 -1 -10 92
-55 102 -49 4 3 8 1 8 -5 0 -5 10 -13 23 -17 12 -4 48 -19 79 -34 31 -15 59
-25 62 -22 4 3 6 0 6 -6 0 -7 3 -11 8 -10 4 1 25 -6 47 -16 22 -10 45 -19 50
-20 6 -1 15 -4 20 -8 32 -20 335 -128 365 -131 11 -1 20 -5 20 -10 0 -5 9 -7
20 -4 11 3 75 -10 143 -29 203 -58 354 -91 587 -130 80 -13 155 -24 168 -24
13 0 21 -4 18 -9 -6 -10 71 -24 85 -16 5 4 9 3 9 -2 0 -4 17 -8 38 -9 20 -1
84 -4 142 -9 58 -4 132 -9 165 -11 75 -4 369 -3 450 1 33 2 101 6 150 9 50 3
108 8 130 10 22 3 65 7 95 11 30 3 69 8 85 11 17 3 46 7 65 8 19 2 51 6 70 10
71 12 91 16 118 22 15 3 38 7 52 8 14 2 32 6 40 9 8 3 32 9 53 12 21 3 47 9
56 15 10 5 21 7 24 4 3 -3 28 1 56 10 28 8 51 12 51 8 0 -4 8 3 18 15 11 14
47 30 107 46 428 118 894 318 1280 550 89 53 377 247 450 303 109 82 290 231
365 299 87 79 350 344 409 412 30 35 58 63 63 63 5 0 6 -4 3 -10 -3 -6 1 -7 9
-4 9 3 16 12 16 20 0 8 4 13 9 12 5 -2 26 20 47 47 21 28 44 54 51 58 7 4 13
12 13 17 0 5 14 24 30 42 17 18 30 38 30 46 0 7 4 11 9 7 5 -3 12 4 16 15 3
11 11 20 16 20 6 0 8 4 5 9 -4 5 -2 11 2 13 9 3 91 113 94 125 2 5 12 18 23
31 11 13 18 26 17 29 -2 3 0 9 5 12 19 14 52 64 47 72 -3 5 2 9 11 9 9 0 13 5
10 10 -3 5 -1 10 6 10 7 0 10 3 6 6 -3 3 -2 11 4 18 23 27 58 86 51 86 -4 0
-2 4 4 8 9 6 22 26 79 124 35 60 54 98 48 98 -4 0 4 11 17 25 13 14 20 25 16
25 -4 0 1 12 11 27 27 40 57 106 55 119 -1 7 4 14 13 18 8 3 15 10 15 17 0 6
14 41 32 77 17 37 31 73 31 79 0 7 4 13 9 13 4 0 7 3 6 8 -1 4 9 30 22 57 12
28 23 56 23 63 0 6 4 12 9 12 4 0 7 3 6 8 -1 4 4 21 11 37 7 17 14 35 15 40 2
6 7 19 11 30 45 112 52 135 43 129 -5 -4 -3 5 6 19 9 13 16 29 15 33 -2 5 5
27 15 49 10 22 19 49 20 60 2 11 8 32 15 48 6 15 13 38 16 50 2 12 18 76 36
142 17 66 33 129 35 140 12 55 17 81 18 95 2 8 5 24 9 35 4 11 8 37 11 57 2
21 6 41 9 45 3 4 7 31 11 58 3 28 8 61 11 75 12 60 21 135 31 249 3 41 10 85
15 98 10 27 13 876 2 886 -3 4 -8 22 -9 39 -11 131 -30 289 -40 342 -2 11 -6
38 -10 61 -7 47 -12 70 -14 70 -1 0 -3 9 -4 20 -9 59 -17 105 -26 134 -5 17
-9 34 -9 36 0 5 -22 112 -26 125 -1 3 -5 19 -9 35 -26 100 -58 212 -63 225 -3
8 -7 20 -9 27 -1 6 -8 29 -15 50 -7 21 -12 41 -11 46 1 4 -3 7 -9 7 -5 0 -8 4
-5 8 4 7 -13 64 -41 132 -3 8 -7 20 -9 25 -1 6 -8 24 -15 40 -7 17 -13 32 -13
35 -5 23 -92 226 -98 228 -4 2 -6 7 -3 12 3 5 0 14 -7 22 -7 7 -14 19 -16 26
-5 24 -46 107 -56 114 -6 4 -8 8 -3 8 4 0 -3 19 -15 43 -12 23 -22 46 -23 50
0 4 -6 11 -13 16 -8 5 -12 10 -11 12 4 5 -59 128 -82 160 -10 14 -16 28 -13
31 2 3 -2 11 -11 18 -8 7 -15 19 -15 27 0 8 -4 11 -10 8 -5 -3 -10 2 -10 12 0
10 -9 29 -20 43 -11 14 -20 31 -20 38 0 7 -7 15 -15 18 -8 4 -13 10 -10 14 2
4 -6 19 -20 34 -13 14 -22 26 -19 26 6 0 -77 123 -89 131 -5 3 -7 8 -5 10 5 7
-123 179 -133 179 -6 0 -8 4 -5 8 3 5 -5 19 -17 33 -12 13 -43 52 -69 86 -25
34 -48 59 -52 56 -3 -4 -6 -1 -6 6 0 13 -80 108 -172 207 -31 32 -67 71 -80
87 -13 15 -30 27 -37 27 -8 0 -11 3 -8 6 7 7 -69 83 -223 225 -108 100 -120
108 -149 109 -22 0 -48 16 -111 69 -14 11 -30 24 -35 28 -6 5 -30 24 -55 44
-121 96 -514 359 -536 359 -4 0 -15 6 -23 14 -9 7 -52 32 -96 56 -44 23 -89
46 -100 52 -11 6 -27 15 -35 19 -75 40 -308 149 -323 150 -7 1 4 4 23 8 33 6
27 9 -100 60 -440 175 -905 298 -1315 346 -27 4 -61 8 -74 10 -13 2 -63 7
-110 11 -47 3 -97 8 -111 11 -29 5 -616 14 -621 9z"/>
</g>
</svg>
