<?xml version="1.0" standalone="no"?>
<!DOCTYPE svg PUBLIC "-//W3C//DTD SVG 20010904//EN"
 "http://www.w3.org/TR/2001/REC-SVG-20010904/DTD/svg10.dtd">
<svg version="1.0" xmlns="http://www.w3.org/2000/svg"
 width="1200.000000pt" height="1200.000000pt" viewBox="0 0 1200.000000 1200.000000"
 preserveAspectRatio="xMidYMid meet">
<g transform="translate(0.000000,1200.000000) scale(0.100000,-0.100000)"
fill="#f03d37" stroke="none">
<path d="M5855 11989 c-184 -27 -224 -47 -1080 -541 -429 -248 -1081 -625
-1450 -838 -368 -213 -1007 -582 -1420 -820 -412 -238 -770 -447 -795 -463
-194 -131 -341 -341 -408 -582 l-27 -100 -3 -2585 c-2 -1907 0 -2610 8 -2680
31 -249 165 -496 355 -652 47 -38 393 -244 1020 -606 523 -302 1522 -879 2220
-1282 699 -404 1300 -746 1336 -762 127 -53 229 -72 389 -72 160 0 262 19 389
72 36 16 300 164 586 329 286 165 1274 736 2195 1268 921 532 1695 981 1720
998 195 132 340 340 408 584 l27 98 0 2645 0 2645 -27 96 c-65 238 -203 440
-388 570 -70 49 -4348 2523 -4465 2581 -179 91 -393 126 -590 97z m-1479
-3573 c343 -51 597 -140 813 -283 159 -106 326 -299 397 -459 14 -32 38 -102
52 -154 l27 -95 5 -1245 c5 -1139 7 -1249 22 -1295 20 -59 60 -101 109 -115
37 -11 230 -13 267 -4 l22 6 0 1774 0 1774 445 0 445 0 0 -282 0 -281 72 109
c194 294 478 467 895 546 158 30 518 32 688 5 414 -67 719 -219 996 -496 103
-104 155 -165 218 -260 184 -276 303 -599 362 -981 27 -173 37 -571 20 -757
-77 -817 -425 -1415 -1002 -1721 -387 -206 -955 -238 -1439 -81 -297 96 -573
288 -712 495 -24 35 -46 64 -50 64 -5 0 -8 -470 -8 -1045 l0 -1045 -462 2
-463 3 0 763 c0 419 0 762 -1 762 -1 0 -52 -13 -115 -30 -291 -75 -521 -87
-724 -35 -101 26 -220 90 -281 152 -60 62 -125 181 -145 270 l-12 52 -56 -50
c-82 -73 -216 -162 -328 -219 -333 -166 -830 -262 -1204 -231 -704 56 -1176
423 -1274 989 -18 100 -20 356 -4 467 42 303 182 546 414 718 95 70 284 165
415 207 114 37 379 91 585 120 83 12 218 32 300 45 83 14 233 34 335 45 394
44 558 93 681 207 67 63 95 121 111 233 41 278 -111 498 -407 590 -159 49
-501 66 -695 35 -284 -47 -503 -181 -594 -366 -35 -72 -76 -209 -76 -256 l0
-23 -466 0 -466 0 7 78 c51 561 372 968 927 1176 169 63 417 113 673 136 142
12 560 4 681 -14z"/>
<path d="M7916 7684 c-375 -70 -630 -286 -787 -669 -191 -464 -180 -1166 25
-1601 164 -346 464 -583 811 -639 178 -29 411 -13 562 39 312 107 567 381 687
737 107 318 127 770 51 1129 -72 340 -251 644 -484 821 -86 65 -246 144 -346
171 -106 28 -399 35 -519 12z"/>
<path d="M4700 6204 c-92 -63 -280 -117 -488 -139 -753 -80 -1079 -179 -1223
-372 -94 -125 -138 -300 -117 -469 22 -189 205 -351 470 -418 318 -81 682 -50
942 81 214 108 359 256 424 433 l27 75 3 355 c2 195 2 383 0 416 l-3 62 -35
-24z"/>
</g>
</svg>
