<?xml version="1.0" standalone="no"?>
<!DOCTYPE svg PUBLIC "-//W3C//DTD SVG 20010904//EN"
 "http://www.w3.org/TR/2001/REC-SVG-20010904/DTD/svg10.dtd">
<svg version="1.0" xmlns="http://www.w3.org/2000/svg"
 width="700.000000pt" height="700.000000pt" viewBox="0 0 700.000000 700.000000"
 preserveAspectRatio="xMidYMid meet">
<metadata>
Created by potrace 1.14, written by Peter Selinger 2001-2017
</metadata>
<g transform="translate(0.000000,700.000000) scale(0.100000,-0.100000)"
fill="#000000" stroke="none">
<path d="M610 6992 c-94 -12 -270 -82 -311 -123 -11 -11 -19 -16 -19 -13 0 14
-116 -107 -150 -156 -42 -62 -78 -130 -84 -157 -1 -10 -6 -25 -9 -33 -34 -80
-34 -73 -32 -3030 l1 -2895 22 -72 c25 -82 78 -193 93 -193 6 0 8 -4 5 -9 -9
-14 111 -138 174 -181 77 -52 175 -97 235 -106 11 -2 38 -7 60 -12 22 -5 1338
-8 2925 -7 2879 1 2915 2 2990 32 8 3 20 7 25 8 25 6 114 50 155 78 58 38 151
128 144 139 -3 4 1 8 9 8 8 0 20 13 27 30 7 16 16 30 19 30 16 0 95 195 86
210 -3 5 -1 11 4 15 5 3 10 13 11 23 5 57 7 5809 2 5816 -3 6 -7 24 -8 40 -7
87 -85 243 -167 332 -54 59 -162 144 -183 144 -7 0 -14 5 -16 10 -2 6 -13 12
-26 13 -12 0 -22 4 -22 8 0 4 -10 10 -22 13 -13 4 -48 14 -78 23 -50 15 -308
16 -2945 17 -1589 1 -2901 0 -2915 -2z"/>
</g>
</svg>
